<?xml version="1.0" ?><svg id="Green_Energy" fill="#fff"  viewBox="0 0 200 200" xmlns="http://www.w3.org/2000/svg"><title/><path d="M142.1145,82.1618A42.1145,42.1145,0,1,0,66.94,108.2345h-.0235A102.7,102.7,0,0,1,80.83,135.1784h38.3391a102.5508,102.5508,0,0,1,14.0634-27.1437h-.0147A41.92,41.92,0,0,0,142.1145,82.1618ZM98.7707,126.97S85.755,115.468,90.2865,102.829l8.6571,9.1229Zm.2077-18.0346-7.8512-8.2737A34.252,34.252,0,0,1,99.1979,89.867ZM100.26,88.9439h0l0,0,0,0Zm.6123,38.051.0838-7.2679,9.6621-9.4705C109.417,119.9792,100.8718,126.9949,100.8718,126.9949Zm9.8-19.8511L100.99,116.735l.3091-26.8434C110.8468,99.2278,110.6713,107.1438,110.6713,107.1438Z"/><path d="M118.133,148.1719c6.3316,0,6.1429-9.0778,0-9.0778H81.867c-6.3316,0-6.1429,9.0778,0,9.0778Z"/><path d="M114.4022,159.9527c6.3317,0,6.143-9.0778,0-9.0778H85.5978c-6.3317,0-6.143,9.0778,0,9.0778Z"/></svg>