<?xml version="1.0" ?><!DOCTYPE svg  PUBLIC '-//W3C//DTD SVG 1.1//EN'  'http://www.w3.org/Graphics/SVG/1.1/DTD/svg11.dtd'><svg height="512px" style="enable-background:new 0 0 512 512;" version="1.1" viewBox="0 0 512 512" width="512px" xml:space="preserve" xmlns="http://www.w3.org/2000/svg" xmlns:xlink="http://www.w3.org/1999/xlink"><g id="_x33_50_x2C___x2C__hill_x2C__landscape_x2C__nature_x2C__mountain_x2C__tree"><g><path d="M276.475,86.346c4.178-4.098,9.906-6.646,16.186-6.646    c6.385,0,12.165,2.575,16.343,6.752c3.783,3.811,6.279,8.934,6.7,14.609c2.023,1.129,3.836,2.549,5.438,4.203    c1.733,1.813,3.179,3.889,4.257,6.175c3.127,1.313,5.806,3.337,7.776,6.069c2.075,2.891,3.312,6.517,3.312,10.799    c0,4.729-2.208,10.089-5.729,14.083c-3.258,3.679-7.698,6.279-12.664,6.279l-62.087,0.185c-5.044,0-9.642-2.05-12.953-5.36    l-0.052-0.026c-3.337-3.336-5.386-7.935-5.386-13.006c0-5.045,2.049-9.616,5.333-12.927l0.053-0.052    c3.336-3.338,7.935-5.387,13.005-5.387l1.262,0.053c0.841-2.863,2.364-5.439,4.388-7.516c2.207-2.285,4.992-3.993,8.118-4.912    C270.484,94.518,272.928,89.841,276.475,86.346 M462.55,390.262v42.039h15.266C478.63,424.839,479.365,403.294,462.55,390.262z     M324.479,200.719c-4.256,7.146-8.617,17.341-12.139,28.691l-0.026,0.079l-0.026,0.079l-0.026,0.078l-0.053,0.158    c-1.655,5.386-3.127,11.035-4.335,16.763c-2.628,12.639-3.836,25.565-2.575,36.574c1.209,10.483,4.677,19.181,11.377,23.962    c1.918,1.393,4.099,2.443,6.62,3.18h0.105c0.395,0,0.763,0.052,1.104,0.184c2.313-0.867,4.414-1.997,6.28-3.363l0.185-0.105    c9.222-6.726,13.031-18.97,13.399-33.078c0.289-11.641-1.708-24.488-4.966-36.602l-0.026-0.078    c-0.866-3.205-1.813-6.385-2.837-9.459C333.018,217.219,328.734,207.707,324.479,200.719z M383.779,147.146    c2.76-2.707,6.516-4.389,10.668-4.389c4.203,0,8.013,1.707,10.772,4.467c2.338,2.338,3.915,5.438,4.335,8.906    c1.104,0.684,2.103,1.498,2.969,2.391c1.025,1.078,1.892,2.287,2.575,3.627c1.786,0.84,3.363,2.049,4.571,3.626l0.211,0.263    c1.418,1.943,2.232,4.387,2.232,7.277c0,3.153-1.471,6.727-3.783,9.354c-2.18,2.47-5.202,4.23-8.591,4.23l-37.336,0.105    c-3.417,0-6.517-1.393-8.75-3.626s-3.626-5.36-3.626-8.775c0-3.285,1.287-6.307,3.416-8.513l0.21-0.237    c2.181-2.207,5.229-3.573,8.565-3.626c0.604-1.55,1.498-2.916,2.628-4.072c1.287-1.34,2.89-2.391,4.649-3.048    C380.102,152.033,381.625,149.247,383.779,147.146z M227.421,228.229l-0.026-0.079l-0.053-0.421    c-1.629-13.479-4.966-27.272-9.17-39.937c-4.834-14.557-10.825-27.589-16.658-36.862c-8.539,13.793-17.551,37.203-22.596,61.481    c-2.549,12.165-4.072,24.514-4.072,35.943v0.368v0.053c0.025,4.02,0.236,7.908,0.656,11.639    c1.629,13.952,6.28,25.512,15.266,31.949c2.995,2.129,6.49,3.73,10.51,4.678h0.052c3.363-1.209,6.358-2.785,9.012-4.678    c12.455-8.906,17.604-25.275,18.078-44.062C228.603,241.813,228.235,235.06,227.421,228.229z M70.983,402.61    c0.368,6.753,2.444,13.847,6.122,19.47c3.837,5.807,9.485,9.984,16.869,10.221h0.499c59.301-1.707,121.414-0.053,181.109,0h2.837    l31.451-1.733c29.952-1.656,36.048-7.121,50.894-20.521c4.125-3.704,8.906-8.013,15.082-13.084l0.209-0.185    c8.67-7.094,18.602-12.4,28.323-17.577c9.512-5.098,18.865-10.089,26.406-16.553c-1.392-3.626-2.443-7.515-3.231-11.64    l-0.263-0.105c-15.056-5.99-29.507-1.603-43.905,7.305c-0.394,0.42-0.893,0.735-1.418,0.894    c-9.959,6.358-19.89,14.818-30.006,23.409c-27.562,23.438-56.385,47.926-91.855,37.363c-24.146-7.173-42.563-24.198-58.013-38.465    c-16.71-15.424-29.611-27.353-41.014-17.789c-7.147,6.018-12.034,12.533-16.501,18.471c-6.884,9.171-12.848,17.105-23.83,20.679    c-0.132,0.052-0.263,0.104-0.421,0.157c-7.382,2.286-17.025,2.68-30.688,0.185C82.912,401.875,76.685,401.822,70.983,402.61z     M320.038,327.808v-11.797c-2.628-0.919-4.993-2.128-7.094-3.652c-8.382-5.99-12.639-16.265-14.058-28.481    c-1.34-11.719-0.079-25.354,2.681-38.623c0.972-4.678,2.153-9.327,3.441-13.82c-5.911-0.684-12.034-1.209-18.103-1.709    l-8.724-0.761c-8.25-0.631-16.211-0.841-23.962-0.552c-6.752,0.236-13.426,0.867-20.126,1.865    c0.657,6.201,0.919,12.27,0.761,18.155c-0.551,20.73-6.436,38.913-20.782,49.186c-2.759,1.971-5.833,3.626-9.223,4.966    l0.026,21.834C240.112,318.034,281.441,318.56,320.038,327.808z M381.021,352.033c14.582-8.854,29.454-13.374,45.48-8.225    c-1.05-10.404-0.577-21.887,0.973-33.578l0.053-0.395l0.026-0.236l0.104-0.604l0.079-0.631l0.026-0.104l0.105-0.789l0.053-0.314    l0.052-0.473l0.026-0.158l0.368-2.207l0.026-0.263l0.104-0.552v-0.053l0.395-2.313l0.026-0.156l0.131-0.605v-0.025l0.105-0.605    l0.026-0.184l0.079-0.42l0.079-0.368l0.053-0.263l0.104-0.525v-0.078l0.132-0.631v-0.079l0.237-1.13l0.104-0.447l0.026-0.184    l0.131-0.604c-2.049-1.577-4.256-3.102-6.595-4.547c-2.838-1.785-5.911-3.494-9.144-5.148h-0.026    c-16.92-8.172-26.957-15.66-37.729-23.727c-6.279-4.676-12.822-9.564-20.836-14.688c-2.312-1.471-4.676-2.811-7.094-4.02    l-1.523-0.762c2.443,10.772,3.889,21.859,3.625,32.133c-0.42,16.002-4.991,30.085-16.053,38.125l-0.21,0.157    c-2.286,1.629-4.888,3.021-7.778,4.099v13.059C346.049,334.691,364.521,342.127,381.021,352.033z M122.192,394.965    c7.357-3.6,12.007-9.748,17.236-16.736c4.677-6.227,9.827-13.085,17.525-19.549c15.738-13.189,30.452,0.395,49.5,17.998    c14.951,13.794,32.791,30.269,55.465,37.021c32.16,9.563,59.591-13.768,85.892-36.101c9.037-7.699,17.945-15.266,26.931-21.467    c-15.844-9.116-33.474-15.975-51.84-20.73c-0.21-0.025-0.446-0.104-0.656-0.156c-40.068-10.273-83.605-10.721-119.969-3.495    h-0.079l-0.079,0.026l-0.079,0.026l-1.97,0.394c-17.026,3.547-32.396,8.828-44.929,15.555    c-12.296,6.595-21.834,14.607-27.457,23.726C123.295,378.596,121.299,386.451,122.192,394.965z M168.566,254.477    c-13.504,9.694-20.704,21.912-32.396,41.775l-5.386,9.118c-9.169,15.396-19.81,25.275-29.637,34.366l-0.185,0.184    c-15.371,14.188-28.639,26.458-29.953,56.175c6.069-0.735,12.664-0.631,19.759,0.683c10.772,1.944,18.707,1.918,24.934,0.474    c-1.498-10.642,0.84-20.468,6.279-29.296c6.279-10.168,16.684-18.97,29.979-26.117c12.954-6.962,28.745-12.4,46.217-16.105    l-0.053-22.858c-4.177-1.183-7.882-2.97-11.114-5.256c-10.642-7.646-16.08-20.809-17.893-36.468    C168.855,258.969,168.671,256.736,168.566,254.477z M77.552,432.301c-2.208-1.918-4.151-4.178-5.807-6.7    c-4.177-6.332-6.568-14.214-7.146-21.729c-20.126,5.202-33.08,20.572-38.597,28.429H77.552z M433.596,368.691    c-7.751,6.305-16.895,11.192-26.196,16.185c-9.405,5.018-18.995,10.142-27.272,16.894l-0.184,0.158    c-5.965,4.86-10.746,9.195-14.871,12.9c-9.38,8.46-15.502,13.978-25.408,17.473h116.16v-45.639    c-4.257-1.183-8.015-2.995-11.271-5.334C439.98,378.07,436.354,373.762,433.596,368.691z M459.029,234.639    c-8.303,13.4-17.025,35.865-22.149,59.381v0.053l-0.053,0.156c-2.417,11.246-4.046,22.701-4.388,33.447v0.027l-0.026,1.497    l-0.026,0.263v1.183v0.026v0.578v0.158v0.42v0.578v0.473v0.104l0.026,2.05v0.053l0.026,0.998l0.026,0.395v0.105l0.026,0.498v0.105    l0.026,0.395v0.314l0.026,0.185l0.026,0.473v0.053l0.026,0.446l0.104,1.472v0.185l0.026,0.289l0.026,0.394l0.026,0.079    l0.026,0.499c0.157,1.577,0.342,3.153,0.551,4.704l0.026,0.051l0.053,0.42c0.842,5.519,2.208,10.616,4.152,15.109l0.104,0.262    c2.522,5.623,5.99,10.273,10.589,13.558c2.811,2.022,6.096,3.573,9.853,4.52c0.315-0.104,0.684-0.157,1.051-0.157    c0.158,0,0.315,0,0.474,0.026c3.021-1.156,5.754-2.628,8.197-4.389c12.48-8.906,17.604-25.249,18.103-44.062    c0.499-19.364-3.889-41.225-10.273-60.484C470.853,256.973,464.888,243.94,459.029,234.639z M41.031,213.12    c-1.209-1.287-1.183-3.337,0.105-4.571c1.261-1.209,3.31-1.183,4.545,0.104l7.094,7.384c1.234,1.287,1.183,3.311-0.079,4.545    c-1.287,1.235-3.336,1.183-4.545-0.079L41.031,213.12z M30.442,246.594c-1.787,0-3.231-1.445-3.231-3.231    c0-1.787,1.445-3.232,3.231-3.232h10.037c1.786,0,3.231,1.445,3.231,3.232c0,1.786-1.445,3.231-3.231,3.231H30.442z     M45.681,278.097c-1.235,1.262-3.284,1.313-4.545,0.079c-1.288-1.235-1.314-3.284-0.105-4.546l7.12-7.383    c1.209-1.287,3.258-1.34,4.545-0.105c1.262,1.235,1.313,3.284,0.079,4.546L45.681,278.097z M77.789,289.315    c0,1.788-1.445,3.232-3.231,3.232c-1.787,0-3.232-1.444-3.232-3.232v-10.456c0-1.787,1.445-3.232,3.232-3.232    c1.786,0,3.231,1.445,3.231,3.232V289.315z M108.083,273.63c1.235,1.262,1.209,3.311-0.078,4.546    c-1.288,1.234-3.311,1.183-4.546-0.079l-7.094-7.409c-1.234-1.262-1.208-3.311,0.079-4.546c1.287-1.234,3.31-1.182,4.545,0.105    L108.083,273.63z M118.698,240.13c1.787,0,3.231,1.445,3.231,3.232c0,1.786-1.445,3.231-3.231,3.231h-10.037    c-1.786,0-3.231-1.445-3.231-3.231c0-1.787,1.445-3.232,3.231-3.232H118.698z M103.458,208.653    c1.235-1.287,3.258-1.313,4.546-0.104c1.287,1.234,1.313,3.284,0.078,4.571l-7.094,7.383c-1.235,1.262-3.258,1.314-4.545,0.079    c-1.287-1.234-1.313-3.258-0.079-4.545L103.458,208.653z M71.325,197.434c0-1.785,1.445-3.23,3.232-3.23    c1.786,0,3.231,1.445,3.231,3.23v10.432c0,1.787-1.445,3.231-3.231,3.231c-1.787,0-3.232-1.444-3.232-3.231V197.434z     M57.4,225.653c4.388-4.571,10.457-7.409,17.157-7.409c6.726,0,12.795,2.838,17.183,7.409c4.362,4.546,7.067,10.825,7.067,17.709    s-2.706,13.163-7.067,17.709c-4.388,4.571-10.457,7.409-17.183,7.409c-6.701,0-12.77-2.838-17.157-7.409    c-4.362-4.546-7.068-10.825-7.068-17.709S53.038,230.199,57.4,225.653z" style="fill-rule:evenodd;clip-rule:evenodd;"/></g></g><g id="Layer_1"/></svg>