<?xml version="1.0" ?><svg fill="#fff" enable-background="new 0 0 800 800" id="Layer_1" version="1.1" viewBox="0 0 800 800" xml:space="preserve" xmlns="http://www.w3.org/2000/svg" xmlns:xlink="http://www.w3.org/1999/xlink"><g><path d="M768,586.7h-39.5l-46.9-183.5c0-1.1,0-1.1-1.1-2.1c0-1.1-1.1-2.1-1.1-2.1c0-1.1-1.1-2.1-1.1-3.2s-1.1-1.1-1.1-2.1   c-1.1-1.1-1.1-2.1-2.1-3.2c0-1.1-1.1-1.1-1.1-2.1c-1.1-1.1-2.1-2.1-3.2-2.1s-1.1-1.1-2.1-1.1l0,0L552.5,304L438.4,91.7   c-4.3-8.5-12.8-14.9-22.4-17.1c-9.6-1.1-20.3,1.1-26.7,8.5L256,211.2l0,0l0,0c-1.1,1.1-2.1,2.1-3.2,4.3l-1.1,1.1   c-1.1,2.1-2.1,4.3-3.2,6.4l0,0l-84.3,215.5l-96,148.3H32c-18.1,0-32,13.9-32,32s13.9,32,32,32h672l0,0l0,0h64c18.1,0,32-13.9,32-32   S786.1,586.7,768,586.7z M402.1,158.9l97.1,181.3c2.1,4.3,5.3,8.5,9.6,10.7l34.1,23.5l-56.5-1.1l-96,26.7l4.3-92.8l-71.5-72.5   L402.1,158.9z M144,586.7l74.7-116.3c1.1-2.1,2.1-3.2,3.2-5.3l67.2-172.8l40.5,40.5l-6.4,152.5l170.7-48l131.2,4.3l37.3,145.1H144z   "/></g></svg>