<?xml version="1.0" ?><svg fill="#fff" viewBox="0 0 200 200" xmlns="http://www.w3.org/2000/svg"><title/><g id="Sustainable_Living"><path d="M144.203,90.4825,144.1479,67.03a2.7861,2.7861,0,0,0-2.7783-2.7781H129.4868a2.7861,2.7861,0,0,0-2.7783,2.7781l.0195,8.3184Z"/><path d="M98.531,148.797a1.5007,1.5007,0,1,0,0-3H89.7951a1.5007,1.5007,0,1,0,0,3Z"/><polygon points="145.313 30.996 145.313 30.996 145.313 30.996 145.313 30.996 145.313 30.996"/><path d="M138.1559,48.2079l-4.1481,11.4184s-6.86-12.2612-.0209-20.6978Z"/><path d="M138.9891,45.9145l-3.7809-8.4156a27.7072,27.7072,0,0,1,9.0478-6.0823Z"/><path d="M145.8535,31.9973,138.439,52.4066l9.9555-4.7329S150.6454,41.6777,145.8535,31.9973Z"/><path d="M147.5212,50.0356l-9.9086,4.6458-2.0075,5.5258S144.0045,57.1367,147.5212,50.0356Z"/><path d="M55.95,111.7364,55.87,167.53a1.4786,1.4786,0,0,0,1.4746,1.4748H84.7018V135.7689c0-23.0033,30.6054-23.0033,30.6054-.57v33.8055h27.4559a1.4786,1.4786,0,0,0,1.4746-1.4748l-.08-55.7931-44.1523-38.241Z"/><path d="M154.461,102.089c5.769,5.769-2.6853,14.2233-7.8227,9.0859L100.0055,70.7874,53.3617,111.1749c-5.1374,5.1374-13.5917-3.3169-7.8227-9.0859L95.2125,59.0628c2.48-1.94,6.11-3.0206,9.5742-.01Z"/></g></svg>